HIERARCHY
ROOT Hips
{
  OFFSET -31.5692 30.0904 122.763
  CHANNELS 6 Xposition Yposition Zposition Zrotation Xrotation Yrotation
  JOINT LeftUpLeg
  {
    OFFSET 8.64259 1.95398 -2.38835
    CHANNELS 3 Zrotation Xrotation Yrotation
    JOINT LeftLeg
    {
      OFFSET 43.7702 0 0
      CHANNELS 3 Zrotation Xrotation Yrotation
      JOINT LeftFoot
      {
        OFFSET 40.6238 0 0
        CHANNELS 3 Zrotation Xrotation Yrotation
        JOINT LeftToeBase
        {
          OFFSET 12.7242 0 0
          CHANNELS 3 Zrotation Xrotation Yrotation
          End Site
          {
            OFFSET 0 0 0
          }
        }
      }
    }
  }
  JOINT RightUpLeg
  {
    OFFSET -8.2249 1.95398 -2.59336
    CHANNELS 3 Zrotation Xrotation Yrotation
    JOINT RightLeg
    {
      OFFSET 43.5653 0 0
      CHANNELS 3 Zrotation Xrotation Yrotation
      JOINT RightFoot
      {
        OFFSET 40.6238 0 0
        CHANNELS 3 Zrotation Xrotation Yrotation
        JOINT RightToeBase
        {
          OFFSET 12.7242 0 0
          CHANNELS 3 Zrotation Xrotation Yrotation
          End Site
          {
            OFFSET 0 0 0
          }
        }
      }
    }
  }
  JOINT Spine
  {
    OFFSET 0.165834 0.87714 6.61349
    CHANNELS 3 Zrotation Xrotation Yrotation
    JOINT Spine1
    {
      OFFSET 7.38963 1.71661e-005 0
      CHANNELS 3 Zrotation Xrotation Yrotation
      JOINT Spine2
      {
        OFFSET 11.9445 1.14441e-005 0
        CHANNELS 3 Zrotation Xrotation Yrotation
        JOINT Spine3
        {
          OFFSET 14.7254 4.19617e-005 0
          CHANNELS 3 Zrotation Xrotation Yrotation
          JOINT Spine4
          {
            OFFSET 10.9679 0 0
            CHANNELS 3 Zrotation Xrotation Yrotation
            JOINT RightShoulder
            {
              OFFSET 2.46616 -1.6653 3.69651
              CHANNELS 3 Zrotation Xrotation Yrotation
              JOINT RightArm
              {
                OFFSET 13.0012 0 0
                CHANNELS 3 Zrotation Xrotation Yrotation
                JOINT RightForeArm
                {
                  OFFSET 28.7848 1.62311e-005 0
                  CHANNELS 3 Zrotation Xrotation Yrotation
                  JOINT RightHand
                  {
                    OFFSET 26.5688 1.62095e-005 0
                    CHANNELS 3 Zrotation Xrotation Yrotation
                    End Site
                    {
                      OFFSET 0 0 0
                    }
                  }
                }
              }
            }
            JOINT LeftShoulder
            {
              OFFSET 2.38034 -1.29275 -3.7523
              CHANNELS 3 Zrotation Xrotation Yrotation
              JOINT LeftArm
              {
                OFFSET 16.3182 6.07031e-005 0
                CHANNELS 3 Zrotation Xrotation Yrotation
                JOINT LeftForeArm
                {
                  OFFSET 27.0901 0 0
                  CHANNELS 3 Zrotation Xrotation Yrotation
                  JOINT LeftHand
                  {
                    OFFSET 24.5451 1.51738e-005 0
                    CHANNELS 3 Zrotation Xrotation Yrotation
                    End Site
                    {
                      OFFSET 0 0 0
                    }
                  }
                }
              }
            }
            JOINT Neck
            {
              OFFSET 5.0226 -0.0266342 0
              CHANNELS 3 Zrotation Xrotation Yrotation
              JOINT Head
              {
                OFFSET 6.69364 2.86102e-005 0
                CHANNELS 3 Zrotation Xrotation Yrotation
                End Site
                {
                  OFFSET 0 0 0
                }
              }
            }
          }
        }
      }
    }
  }
}
MOTION
Frames:	10
Frame Time:	0.0416667
-258.709 87.5122 -215.543 92.9029 13.4418 92.9371 176.782 16.0401 98.4947 -73.2047 48.3348 17.7486 94.9725 25.5713 -0.301858 23.8694 -2.48969 0.360726 154.698 -19.9178 106.422 -81.8264 7.23536 28.6282 71.1 -7.41366 -2.82559 15.991 2.86732 9.74086 -4.26302 9.43618 -90.935 7.95518 -8.91844 -1.35238 -3.68522 -8.9693 -0.955413 -26.4277 -8.09726 -3.98662 -6.41509 -8.09725 -3.98663 90.1994 -29.6358 -106.502 26.2986 19.2467 1.67427 39.4416 7.01009 -92.9229 -36.4668 25.7975 -67.3118 -89.1665 -39.0658 77.5031 -13.0271 -11.2739 -23.9156 174.034 -2.87798 -129.052 41.8473 -9.29483 -24.9599 30.3476 -8.76439 -12.607 -6.79888 -3.33474 2.12296 
-254.457 88.9924 -212.807 92.5788 12.6665 93.4668 176.466 8.90886 101.031 -63.2668 46.2511 17.4332 97.7136 25.5014 -2.72932 23.9716 -3.38019 2.76538 145.212 -10.0005 99.0291 -91.1873 0.984943 17.8893 75.6035 -7.79194 -4.13117 22.5252 -1.16195 16.2078 -4.73212 9.40272 -90.9687 8.01834 -9.86967 -1.35889 -3.615 -9.9198 -0.9189 -26.408 -9.00155 -4.28511 -6.39539 -9.00156 -4.28512 90.6874 -28.9186 -105.794 30.7325 9.02158 0.728539 40.8263 9.29905 -91.8151 -31.4175 26.2561 -75.344 -88.6365 -37.6816 78.0615 -14.3542 -15.3849 -23.7841 169.137 -3.54023 -131.612 38.9974 -8.80468 -26.3127 30.0076 -6.46728 -11.9434 -7.8033 -1.43567 1.63637 
-250.753 90.6904 -210.051 90.7047 7.04071 95.9817 -179.021 3.20573 104.837 -49.816 42.7197 13.7452 96.1728 24.5436 -3.37621 27.4695 -1.47544 2.46617 143.578 0.707696 99.4185 -96.4199 -1.02877 9.47748 80.8476 -10.0418 -6.44238 40.3247 -6.44422 14.7927 -4.47598 9.21442 -91.298 8.37286 -9.50474 -1.98258 -3.26386 -9.5827 -1.55862 -26.0214 -8.46692 -4.76539 -6.00875 -8.46694 -4.7654 91.7775 -28.4722 -103.734 33.1759 -1.64092 0.192442 41.6944 13.5354 -87.7534 -25.6463 25.904 -84.9456 -89.6891 -38.3632 76.4276 -14.088 -19.2168 -24.8468 162.723 -3.13867 -135.674 35.5595 -8.07096 -27.4649 28.9413 -4.06681 -10.2153 -7.60976 0.0669292 1.69152 
-247.555 92.4146 -207.435 89.3087 -0.694497 97.9207 -173.184 -0.907452 108.217 -40.2095 41.3312 10.5232 87.6248 22.0227 1.28775 35.149 2.95809 -0.14682 145.946 14.1132 100.659 -97.4911 -1.11086 4.99145 85.1459 -13.3758 -10.2013 35.2196 -4.65113 13.1226 -4.15806 9.07866 -91.5601 8.62192 -8.9872 -2.51033 -3.01936 -9.08889 -2.10934 -25.7362 -7.81585 -5.10827 -5.72358 -7.81586 -5.10827 91.9193 -27.0376 -103.952 33.9782 -4.81895 -0.421459 39.902 15.0435 -84.8288 -23.2867 23.6682 -84.5565 -89.0535 -38.9552 77.6685 -14.1063 -22.4305 -25.0995 157.136 -3.18345 -139.054 31.1942 -6.69642 -28.1186 29.1363 -1.06797 -7.19813 -9.66464 1.78044 0.768121 
-243.806 93.9067 -204.592 90.3774 -9.66771 99.0995 -167.701 -6.11882 109.479 -34.5875 39.4887 8.05622 77.7787 16.5465 4.32455 42.626 5.81913 2.71908 151.794 24.1518 101.557 -94.4003 -0.448872 2.65777 85.7662 -14.3515 -11.7062 21.2621 0.350245 11.6929 -3.61386 9.12765 -91.5897 8.5273 -7.9137 -2.64624 -3.12143 -8.02244 -2.29342 -25.7855 -6.75204 -4.90983 -5.7729 -6.75205 -4.90983 92.1384 -26.8265 -103.566 33.7002 -6.77015 -0.653057 31.4608 13.1348 -81.7479 -27.5255 23.2025 -76.8477 -89.0891 -38.3709 77.4571 -15.3456 -25.4025 -24.4603 155.01 -2.75601 -143.216 29.9546 -6.02901 -26.3352 29.8246 1.1102 -6.16863 -12.3904 3.37032 2.10863 
-239.509 94.9088 -201.219 90.825 -19.5519 99.4195 -164.125 -11.4558 108.809 -28.0638 34.462 5.15406 67.1598 8.80921 4.50102 51.8685 9.77504 5.97386 159.558 33.9429 102.11 -88.3365 4.30646 1.75007 84.8385 -12.3603 -8.23676 23.6081 0.0397628 9.55738 -3.01126 9.02169 -91.6027 8.74786 -6.71933 -2.72961 -2.908 -6.83287 -2.43015 -25.5234 -5.58848 -4.62632 -5.51077 -5.58847 -4.62631 92.0077 -26.2008 -104.066 33.1854 -7.92707 -0.336653 25.4674 11.6633 -78.9013 -28.368 19.5425 -67.1561 -89.6059 -39.3167 76.8227 -14.8682 -28.2161 -23.2883 153.868 -2.35044 -147.573 28.6721 -5.28351 -24.1585 29.0289 4.04878 -3.75302 -13.2487 5.17664 1.99794 
-234.204 95.8287 -197.125 89.5837 -30.3461 98.445 -163.909 -16.5797 105.242 -21.9059 27.2616 2.93335 55.8112 0.0517963 3.51486 52.0555 10.9121 -2.97569 168.246 41.7283 102.139 -78.3901 6.72641 0.988116 82.4862 -10.674 -4.99835 22.9337 0.386623 9.1657 -2.32995 8.74419 -91.5561 9.3199 -5.34466 -2.69327 -2.34229 -5.45799 -2.45497 -24.9174 -4.28854 -4.17604 -4.90477 -4.28854 -4.17605 91.6555 -25.9475 -104.912 32.1034 -9.96005 -0.668697 18.9681 9.46179 -75.4893 -28.7077 13.9502 -51.107 -89.721 -39.5608 76.6915 -14.7249 -30.6672 -22.2918 152.14 -1.86764 -151.916 26.5084 -4.34597 -22.2932 28.1822 6.60415 -1.74014 -14.6087 6.78672 2.11579 
-228.404 96.4253 -192.418 85.4025 -39.2692 95.6865 -168.382 -17.7495 98.5037 -21.628 18.8386 3.44028 51.1204 -4.86857 1.13706 24.6274 -0.974993 -3.39047 175.297 47.4402 101.925 -65.0587 5.47123 0.535128 79.8658 -10.273 -3.64384 21.0479 1.27495 8.53285 -1.81352 8.26694 -91.6628 10.2782 -4.37294 -2.92451 -1.38826 -4.49736 -2.72907 -23.9339 -3.29256 -4.10322 -3.92129 -3.29254 -4.10321 91.4308 -24.9133 -105.796 30.5793 -11.2015 -1.4485 14.6405 7.52885 -73.1487 -25.1099 6.92163 -32.4565 -90.0826 -40.9965 76.4653 -13.5297 -32.9516 -20.812 151.415 -0.879604 -155.609 26.349 -4.05232 -20.0451 26.9591 9.3847 1.10033 -15.8817 8.40903 1.75959 
-221.931 96.7095 -187.338 81.1473 -44.9957 92.1525 -172.332 -16.8651 92.3283 -25.538 13.7282 4.17552 53.0246 -5.48161 0.0966661 14.2209 -7.14689 -0.0950241 179.989 49.3848 101.057 -50.6837 -0.555797 0.185385 75.6199 -9.29578 -3.90362 20.8199 1.61361 7.6204 -1.55474 7.91353 -91.7214 10.9878 -3.89237 -3.05416 -0.680468 -4.02294 -2.87984 -23.2141 -2.79531 -4.08207 -3.20145 -2.79532 -4.08208 91.0738 -24.9347 -106.555 27.9921 -12.2063 -2.95369 13.5376 6.84934 -72.0501 -22.2629 4.50924 -25.3132 -89.7927 -40.659 76.8586 -14.6446 -34.8617 -20.3425 153.284 -0.278352 -159.261 27.7385 -4.14972 -17.4987 26.0043 11.5492 2.14239 -16.4799 10.0508 2.4253 
-215.441 96.4712 -181.728 79.2326 -47.7549 90.5754 -172.393 -17.0658 90.2457 -31.0519 16.1568 3.01183 57.1023 -3.07934 2.5996 19.8118 -4.16648 -0.396053 -177.855 47.6932 100.754 -37.2769 -8.06596 0.265018 71.7586 -8.19463 -4.40154 23.4337 0.757414 6.90156 -1.5236 7.81515 -91.837 11.1792 -3.88596 -3.27675 -0.489687 -4.02634 -3.10254 -23.0178 -2.7225 -4.29223 -3.00513 -2.7225 -4.29223 90.7659 -25.2573 -107.082 25.1326 -12.7981 -5.33519 12.4066 6.05446 -71.6095 -22.0859 4.30051 -24.8092 -89.2203 -41.3772 77.9881 -15.7341 -35.8235 -21.6438 152.439 0.458906 -160.388 25.0499 -3.50265 -18.6383 25.376 13.022 3.29503 -16.4771 11.0468 2.74697 
